HIERARCHY
ROOT SpineBase
{
  OFFSET 0.000000 0.000000 0.000000
  CHANNELS 6 Xposition Yposition Zposition Zrotation Xrotation Yrotation
  JOINT SpineMid
  {
    OFFSET -0.000000 29.123706 0.000000
    CHANNELS 3 Zrotation Xrotation Yrotation
    JOINT SpineShoulder
    {
      OFFSET 0.013966 21.686897 -0.863848
      CHANNELS 3 Zrotation Xrotation Yrotation
      JOINT Neck
      {
        OFFSET 0.081773 7.189271 -0.611280
        CHANNELS 3 Zrotation Xrotation Yrotation
        JOINT Head
        {
          OFFSET -0.530286 12.310766 -0.966965
          CHANNELS 3 Zrotation Xrotation Yrotation
          End Site
          {
            OFFSET 0 0 0
          }
        }
      }
      JOINT ShoulderLeft
      {
        OFFSET -11.826680 -2.781433 8.199043
        CHANNELS 3 Zrotation Xrotation Yrotation
        JOINT ElbowLeft
        {
          OFFSET 9.406785 -15.652506 -12.151240
          CHANNELS 3 Zrotation Xrotation Yrotation
          JOINT WristLeft
          {
            OFFSET -5.745359 -16.847844 6.592839
            CHANNELS 3 Zrotation Xrotation Yrotation
            JOINT HandLeft
            {
              OFFSET -6.402858 -23.138733 10.282031
              CHANNELS 3 Zrotation Xrotation Yrotation
              JOINT HandTipLeft
              {
                OFFSET 1.000613 -6.000278 -0.396844
                CHANNELS 3 Zrotation Xrotation Yrotation
                End Site
                {
                  OFFSET 0 0 0
                }
              }
              JOINT ThumbLeft
              {
                OFFSET -1.365494 1.458525 -1.836715
                CHANNELS 3 Zrotation Xrotation Yrotation
                End Site
                {
                  OFFSET 0 0 0
                }
              }
            }
          }
        }
      }
      JOINT ShoulderRight
      {
        OFFSET 9.790887 -5.204811 -13.254540
        CHANNELS 3 Zrotation Xrotation Yrotation
        JOINT ElbowRight
        {
          OFFSET 3.096360 -19.970206 -1.431775
          CHANNELS 3 Zrotation Xrotation Yrotation
          JOINT WristRight
          {
            OFFSET -1.856665 -18.474089 -3.266324
            CHANNELS 3 Zrotation Xrotation Yrotation
            JOINT HandRight
            {
              OFFSET -1.022856 -5.176478 -0.794191
              CHANNELS 3 Zrotation Xrotation Yrotation
              JOINT HandTipRight
              {
                OFFSET 0.607743 -5.591706 -1.450202
                CHANNELS 3 Zrotation Xrotation Yrotation
                End Site
                {
                  OFFSET 0 0 0
                }
              }
              JOINT ThumbRight
              {
                OFFSET -1.624370 -2.690350 -2.156939
                CHANNELS 3 Zrotation Xrotation Yrotation
                End Site
                {
                  OFFSET 0 0 0
                }
              }
            }
          }
        }
      }
    }
  }
  JOINT HipLeft
  {
    OFFSET -4.929147 1.186775 -0.204609
    CHANNELS 3 Zrotation Xrotation Yrotation
    JOINT KneeLeft
    {
      OFFSET 5.987875 -31.047389 11.837273
      CHANNELS 3 Zrotation Xrotation Yrotation
      JOINT AnkleLeft
      {
        OFFSET 4.351219 -28.972975 7.028199
        CHANNELS 3 Zrotation Xrotation Yrotation
        JOINT FootLeft
        {
          OFFSET -2.318660 -5.856529 -6.869714
          CHANNELS 3 Zrotation Xrotation Yrotation
          End Site
          {
            OFFSET 0 0 0
          }
        }
      }
    }
  }
  JOINT HipRight
  {
    OFFSET 4.622600 0.003033 -6.139440
    CHANNELS 3 Zrotation Xrotation Yrotation
    JOINT KneeRight
    {
      OFFSET 6.504601 -26.908897 5.074979
      CHANNELS 3 Zrotation Xrotation Yrotation
      JOINT AnkleRight
      {
        OFFSET 5.699245 -33.826874 8.545666
        CHANNELS 3 Zrotation Xrotation Yrotation
        JOINT FootRight
        {
          OFFSET -4.603919 -6.670823 3.168263
          CHANNELS 3 Zrotation Xrotation Yrotation
          End Site
          {
            OFFSET 0 0 0
          }
        }
      }
    }
  }
}
MOTION
Frames: 11
Frame Time: 0.033333
15.544360 69.918008 340.645748 -0.640676 -0.114184 44.339216 0.538029 -0.366104 -44.338136 -0.000000 0.000000 0.000000 -3.563647 5.282196 0.112688 0.000000 0.000000 0.000000 -4.085358 4.489259 5.973192 -42.560522 39.362660 -24.949411 -90.075186 -14.901647 -109.763084 -31.841188 32.375735 174.624883 0.000000 0.000000 0.000000 0.000000 0.000000 0.000000 2.077815 4.917434 0.521620 -105.295274 -17.309104 -1.944892 -7.427234 13.506177 13.670124 -0.174877 11.577020 43.431081 0.000000 0.000000 0.000000 0.000000 0.000000 0.000000 -0.349260 1.946803 -44.989496 4.108580 -1.491728 1.092595 -1.835833 0.518088 -0.360523 0.000000 0.000000 0.000000 -2.185443 -1.534014 -45.256878 1.003725 3.759293 1.004047 -1.607088 15.503163 -12.922793 0.000000 0.000000 0.000000
15.301489 70.400731 340.607308 -1.038173 -0.106311 46.902712 0.786977 -0.685419 -46.898968 -0.000000 0.000000 0.000000 -3.530675 5.535847 0.132664 0.000000 0.000000 0.000000 -3.793048 4.746498 5.879695 -43.432314 33.364511 -24.949704 -92.916156 -10.504831 -106.252318 -30.402619 34.384188 179.146211 0.000000 0.000000 0.000000 0.000000 0.000000 0.000000 -7.589894 12.437955 3.316616 -100.154021 -2.635374 3.476300 -3.955459 7.550229 3.892534 -1.036166 3.290538 34.648596 0.000000 0.000000 0.000000 0.000000 0.000000 0.000000 -0.425073 1.901065 -47.758336 5.078691 -0.632472 1.517068 -0.912780 -2.015554 -1.572311 0.000000 0.000000 0.000000 -1.363204 -1.490604 -47.617297 0.855610 2.130288 0.661587 -5.885510 10.868392 -9.832277 0.000000 0.000000 0.000000
15.144014 70.899086 340.540361 -1.251248 -0.026203 49.350972 0.518499 -0.175207 -49.378781 0.780689 -0.252624 0.032978 -3.673851 5.740743 0.143856 0.000000 0.000000 0.000000 -2.556612 6.932757 6.100440 -46.541780 29.100134 -27.070837 -84.482918 0.873327 -86.271577 -4.120215 31.938245 157.445439 0.000000 0.000000 0.000000 0.000000 0.000000 0.000000 -8.310213 13.067442 3.595027 -99.342393 0.024352 5.520605 -4.681986 5.419729 1.178685 -1.834446 1.199847 31.902110 0.000000 0.000000 0.000000 0.000000 0.000000 0.000000 0.369656 1.767736 -49.971998 4.310673 -1.741433 1.123377 -2.041493 -8.120085 3.347517 0.000000 0.000000 0.000000 -1.144011 -1.151192 -49.989440 1.935116 1.356315 0.727807 -5.268428 9.430839 -8.272603 0.000000 0.000000 0.000000
15.006290 71.258600 340.547268 -1.419225 -0.040316 50.497398 0.508681 -0.235971 -50.530549 0.913698 -0.201488 0.038130 -3.865244 5.895105 0.150363 0.000000 0.000000 0.000000 -1.130927 10.985457 7.110627 -50.170932 27.272646 -31.716873 -66.662352 14.530276 -50.285238 25.678929 -0.617563 102.945751 0.000000 0.000000 0.000000 0.000000 0.000000 0.000000 -0.379699 7.285115 1.177657 -104.811537 -4.817373 8.195886 -7.967922 3.383539 0.234202 -0.519396 4.787897 35.158618 0.000000 0.000000 0.000000 0.000000 0.000000 0.000000 2.241351 1.629971 -50.446161 1.952825 -4.388612 -0.054950 -5.257566 -6.089377 8.892314 0.000000 0.000000 0.000000 -0.190038 -0.844659 -50.850801 1.933729 -0.307332 0.420959 -3.130547 11.095085 -8.024451 0.000000 0.000000 0.000000
14.996643 71.572426 340.526156 -1.406488 -0.032457 51.426500 0.402478 -0.199866 -51.463887 0.999387 -0.156884 0.041277 -3.940327 6.179953 0.170609 0.000000 0.000000 0.000000 0.605116 15.228564 7.807210 -51.340177 25.930808 -36.083424 -58.015954 8.662690 -45.387328 21.477467 -9.092590 85.489417 0.000000 0.000000 0.000000 0.000000 0.000000 0.000000 5.700250 2.648893 -0.128929 -103.144234 -4.830836 13.105642 -13.243520 3.758910 0.867223 -0.500859 10.180968 43.149659 0.000000 0.000000 0.000000 0.000000 0.000000 0.000000 3.032653 1.761487 -51.104139 0.944406 -6.214952 -0.688328 -3.041223 -4.465840 7.147610 0.000000 0.000000 0.000000 0.902448 -1.079326 -51.418398 1.128561 -1.782433 0.002327 -0.662018 8.913145 -4.871419 0.000000 0.000000 0.000000
15.097435 71.650375 340.522662 -1.167693 -0.001273 51.761947 0.249864 -0.054378 -51.798944 0.970441 -0.160669 0.040118 -4.191020 6.224138 0.167979 0.000000 0.000000 0.000000 2.914662 20.212436 8.213610 -49.343325 28.694999 -41.024298 -50.260740 7.726468 -42.543244 16.146550 -15.317742 80.955924 0.000000 0.000000 0.000000 0.000000 0.000000 0.000000 12.660096 -3.279304 -1.040309 -96.522936 -17.498498 8.285087 -19.001673 6.513505 9.802078 -7.118248 23.804826 60.838257 0.000000 0.000000 0.000000 0.000000 0.000000 0.000000 3.383277 2.014065 -51.271618 0.047816 -7.405950 -1.198257 0.814273 -3.431942 3.303063 0.000000 0.000000 0.000000 0.540214 0.049381 -51.812530 1.953670 -2.345059 0.038494 6.475350 1.639484 3.766849 0.000000 0.000000 0.000000
15.233151 71.592138 340.541289 -0.878621 0.028423 50.931972 0.144686 0.098065 -50.965070 0.863694 -0.202041 0.036055 -4.518032 6.198005 0.157856 0.000000 0.000000 0.000000 4.576380 22.509591 7.827162 -44.678925 32.336104 -43.180922 -51.287126 -13.717446 -60.519900 3.325838 -6.011467 83.987127 0.000000 0.000000 0.000000 0.000000 0.000000 0.000000 18.979662 -8.985975 -1.239100 -35.757991 -30.609664 8.332964 -22.233251 -12.191437 12.909479 -86.384246 28.604651 128.040214 0.000000 0.000000 0.000000 0.000000 0.000000 0.000000 2.995694 2.365660 -50.532185 0.113907 -7.534044 -1.181407 5.755850 -3.887527 -2.525300 0.000000 0.000000 0.000000 0.345919 0.452302 -50.979175 2.063121 -2.076479 0.092536 5.394017 14.681795 -7.711109 0.000000 0.000000 0.000000
15.493515 71.277671 340.565514 -0.364048 0.092166 49.509084 0.166296 -0.336707 -49.508302 -0.000000 0.000000 0.000000 -4.997110 6.119368 0.139212 0.000000 0.000000 0.000000 5.401669 25.453673 8.405992 -35.865800 33.569973 -46.053310 -54.745504 -9.404219 -65.832390 4.851293 -12.861857 80.038991 0.000000 0.000000 0.000000 0.000000 0.000000 0.000000 35.353004 -23.531573 1.244546 14.032430 -3.009903 -1.591979 2.573288 1.336471 2.420662 -170.395607 7.413414 99.666295 0.000000 0.000000 0.000000 0.000000 0.000000 0.000000 2.324924 2.813217 -49.218674 0.306439 -7.130677 -1.037423 9.751007 2.953165 -10.742637 0.000000 0.000000 0.000000 -0.447783 1.650847 -49.663302 3.476875 -2.305683 0.359792 3.424223 19.041046 -12.085789 0.000000 0.000000 0.000000
15.805267 70.873553 340.538697 0.142586 0.239744 47.906086 -0.273483 -0.054906 -47.906516 0.515115 0.898183 0.029566 -5.852286 5.177457 0.003997 0.000000 0.000000 0.000000 4.315020 24.514515 8.910791 -32.985008 34.050259 -46.194358 -66.156061 -26.028505 -83.588357 -9.268413 2.159371 97.477528 0.000000 0.000000 0.000000 0.000000 0.000000 0.000000 43.667707 -30.573034 4.773965 11.103973 3.587749 -4.158315 0.459750 3.142511 1.917561 -174.022616 17.798745 104.852363 0.000000 0.000000 0.000000 0.000000 0.000000 0.000000 1.446126 2.968314 -47.726861 0.258905 -6.540686 -0.940709 17.105021 8.089210 -22.003676 0.000000 0.000000 0.000000 -1.771453 2.094358 -48.292807 4.241890 -1.559186 0.645485 3.522583 22.172212 -15.133744 0.000000 0.000000 0.000000
16.111762 70.410460 340.429314 0.588838 0.455448 46.170228 -0.736335 0.109394 -46.171865 0.940230 1.170377 0.057085 -6.576703 4.839826 -0.080689 0.000000 0.000000 0.000000 3.367572 22.313238 8.500451 -37.856484 34.380600 -44.505232 -49.851902 -15.022579 -60.827914 -5.445269 -14.526464 81.926539 0.000000 0.000000 0.000000 0.000000 0.000000 0.000000 48.375033 -33.877599 7.108726 10.513246 4.600218 -4.538011 -2.095748 2.832783 3.765640 -173.182892 7.590098 99.584298 0.000000 0.000000 0.000000 0.000000 0.000000 0.000000 0.739510 2.817800 -45.995868 -0.289362 -6.135692 -1.052375 22.105175 9.264507 -28.459198 0.000000 0.000000 0.000000 -2.954995 2.293972 -46.737212 4.638376 -1.063943 0.800871 3.876347 22.195840 -15.138397 0.000000 0.000000 0.000000
16.307594 69.722387 340.398464 0.786506 0.486162 43.984210 -0.903525 0.196409 -43.985998 1.180193 1.290018 0.072469 -6.782112 4.784874 -0.107895 0.000000 0.000000 0.000000 2.052670 20.694087 8.730965 -43.224059 33.503073 -43.414246 -42.609845 -6.863187 -47.481313 -9.923446 -25.174906 75.362162 0.000000 0.000000 0.000000 0.000000 0.000000 0.000000 49.034053 -34.685269 7.663340 10.067400 4.667218 -4.250084 -1.205880 4.198221 2.272374 -174.178721 7.652256 98.273070 0.000000 0.000000 0.000000 0.000000 0.000000 0.000000 -0.585575 2.302061 -44.129635 0.288962 -3.906770 -0.446892 21.491801 11.420872 -28.634499 0.000000 0.000000 0.000000 -3.454136 1.750541 -44.653670 4.017462 -0.216705 0.811877 4.031669 20.220235 -13.553016 0.000000 0.000000 0.000000
